<svg width="1168" height="108" viewBox="0 0 1168 108" fill="none" xmlns="http://www.w3.org/2000/svg">
<path d="M10.9134 51.5H9.50426C9.42093 51.0947 9.2751 50.7386 9.06676 50.4318C8.86222 50.125 8.61222 49.8674 8.31676 49.6591C8.02509 49.447 7.70123 49.2879 7.34517 49.1818C6.98911 49.0758 6.6179 49.0227 6.23153 49.0227C5.52699 49.0227 4.88873 49.2008 4.31676 49.5568C3.74858 49.9129 3.29593 50.4375 2.95881 51.1307C2.62547 51.8239 2.45881 52.6742 2.45881 53.6818C2.45881 54.6894 2.62547 55.5398 2.95881 56.233C3.29593 56.9261 3.74858 57.4508 4.31676 57.8068C4.88873 58.1629 5.52699 58.3409 6.23153 58.3409C6.6179 58.3409 6.98911 58.2879 7.34517 58.1818C7.70123 58.0758 8.02509 57.9186 8.31676 57.7102C8.61222 57.4981 8.86222 57.2386 9.06676 56.9318C9.2751 56.6212 9.42093 56.2652 9.50426 55.8636H10.9134C10.8073 56.4583 10.6141 56.9905 10.3338 57.4602C10.0535 57.9299 9.70502 58.3295 9.28835 58.6591C8.87169 58.9848 8.40388 59.233 7.88494 59.4034C7.36979 59.5739 6.81866 59.6591 6.23153 59.6591C5.23911 59.6591 4.35653 59.4167 3.58381 58.9318C2.81108 58.447 2.20313 57.7576 1.75994 56.8636C1.31676 55.9697 1.09517 54.9091 1.09517 53.6818C1.09517 52.4545 1.31676 51.3939 1.75994 50.5C2.20313 49.6061 2.81108 48.9167 3.58381 48.4318C4.35653 47.947 5.23911 47.7045 6.23153 47.7045C6.81866 47.7045 7.36979 47.7898 7.88494 47.9602C8.40388 48.1307 8.87169 48.3807 9.28835 48.7102C9.70502 49.036 10.0535 49.4337 10.3338 49.9034C10.6141 50.3693 10.8073 50.9015 10.9134 51.5ZM14.3494 47.8636V59.5H13.0085V47.8636H14.3494ZM16.8054 59.5V50.7727H18.1463V59.5H16.8054ZM17.4872 49.3182C17.2259 49.3182 17.0005 49.2292 16.8111 49.0511C16.6255 48.8731 16.5327 48.6591 16.5327 48.4091C16.5327 48.1591 16.6255 47.9451 16.8111 47.767C17.0005 47.589 17.2259 47.5 17.4872 47.5C17.7486 47.5 17.9721 47.589 18.1577 47.767C18.3471 47.9451 18.4418 48.1591 18.4418 48.4091C18.4418 48.6591 18.3471 48.8731 18.1577 49.0511C17.9721 49.2292 17.7486 49.3182 17.4872 49.3182ZM24.2614 59.6818C23.4205 59.6818 22.6951 59.4962 22.0852 59.125C21.4792 58.75 21.0114 58.2273 20.6818 57.5568C20.3561 56.8826 20.1932 56.0985 20.1932 55.2045C20.1932 54.3106 20.3561 53.5227 20.6818 52.8409C21.0114 52.1553 21.4697 51.6212 22.0568 51.2386C22.6477 50.8523 23.3371 50.6591 24.125 50.6591C24.5795 50.6591 25.0284 50.7348 25.4716 50.8864C25.9148 51.0379 26.3182 51.2841 26.6818 51.625C27.0455 51.9621 27.3352 52.4091 27.5511 52.9659C27.767 53.5227 27.875 54.2083 27.875 55.0227V55.5909H21.1477V54.4318H26.5114C26.5114 53.9394 26.4129 53.5 26.2159 53.1136C26.0227 52.7273 25.7462 52.4223 25.3864 52.1989C25.0303 51.9754 24.6098 51.8636 24.125 51.8636C23.5909 51.8636 23.1288 51.9962 22.7386 52.2614C22.3523 52.5227 22.0549 52.8636 21.8466 53.2841C21.6383 53.7045 21.5341 54.1553 21.5341 54.6364V55.4091C21.5341 56.0682 21.6477 56.6269 21.875 57.0852C22.1061 57.5398 22.4261 57.8864 22.8352 58.125C23.2443 58.3598 23.7197 58.4773 24.2614 58.4773C24.6136 58.4773 24.9318 58.428 25.2159 58.3295C25.5038 58.2273 25.7519 58.0758 25.9602 57.875C26.1686 57.6705 26.3295 57.4167 26.4432 57.1136L27.7386 57.4773C27.6023 57.9167 27.3731 58.303 27.0511 58.6364C26.7292 58.9659 26.3314 59.2235 25.858 59.4091C25.3845 59.5909 24.8523 59.6818 24.2614 59.6818ZM31.2557 54.25V59.5H29.9148V50.7727H31.2102V52.1364H31.3239C31.5284 51.6932 31.839 51.3371 32.2557 51.0682C32.6723 50.7955 33.2102 50.6591 33.8693 50.6591C34.4602 50.6591 34.9773 50.7803 35.4205 51.0227C35.8636 51.2614 36.2083 51.625 36.4545 52.1136C36.7008 52.5985 36.8239 53.2121 36.8239 53.9545V59.5H35.483V54.0455C35.483 53.3598 35.3049 52.8258 34.9489 52.4432C34.5928 52.0568 34.1042 51.8636 33.483 51.8636C33.0549 51.8636 32.6723 51.9564 32.3352 52.142C32.0019 52.3277 31.7386 52.5985 31.5455 52.9545C31.3523 53.3106 31.2557 53.7424 31.2557 54.25ZM43.0696 50.7727V51.9091H38.5469V50.7727H43.0696ZM39.8651 48.6818H41.206V57C41.206 57.3788 41.2609 57.6629 41.3707 57.8523C41.4844 58.0379 41.6283 58.1629 41.8026 58.2273C41.9806 58.2879 42.1681 58.3182 42.3651 58.3182C42.5128 58.3182 42.634 58.3106 42.7287 58.2955C42.8234 58.2765 42.8991 58.2614 42.956 58.25L43.2287 59.4545C43.1378 59.4886 43.0109 59.5227 42.848 59.5568C42.6851 59.5947 42.4787 59.6136 42.2287 59.6136C41.8499 59.6136 41.4787 59.5322 41.1151 59.3693C40.7552 59.2064 40.456 58.9583 40.2173 58.625C39.9825 58.2917 39.8651 57.8712 39.8651 57.3636V48.6818ZM48.652 59.6818C47.8111 59.6818 47.0857 59.4962 46.4759 59.125C45.8698 58.75 45.402 58.2273 45.0724 57.5568C44.7467 56.8826 44.5838 56.0985 44.5838 55.2045C44.5838 54.3106 44.7467 53.5227 45.0724 52.8409C45.402 52.1553 45.8603 51.6212 46.4474 51.2386C47.0384 50.8523 47.7277 50.6591 48.5156 50.6591C48.9702 50.6591 49.419 50.7348 49.8622 50.8864C50.3054 51.0379 50.7088 51.2841 51.0724 51.625C51.4361 51.9621 51.7259 52.4091 51.9418 52.9659C52.1577 53.5227 52.2656 54.2083 52.2656 55.0227V55.5909H45.5384V54.4318H50.902C50.902 53.9394 50.8035 53.5 50.6065 53.1136C50.4134 52.7273 50.1368 52.4223 49.777 52.1989C49.4209 51.9754 49.0005 51.8636 48.5156 51.8636C47.9815 51.8636 47.5194 51.9962 47.1293 52.2614C46.7429 52.5227 46.4455 52.8636 46.2372 53.2841C46.0289 53.7045 45.9247 54.1553 45.9247 54.6364V55.4091C45.9247 56.0682 46.0384 56.6269 46.2656 57.0852C46.4967 57.5398 46.8168 57.8864 47.2259 58.125C47.6349 58.3598 48.1103 58.4773 48.652 58.4773C49.0043 58.4773 49.3224 58.428 49.6065 58.3295C49.8944 58.2273 50.1425 58.0758 50.3509 57.875C50.5592 57.6705 50.7202 57.4167 50.8338 57.1136L52.1293 57.4773C51.9929 57.9167 51.7637 58.303 51.4418 58.6364C51.1198 58.9659 50.7221 59.2235 50.2486 59.4091C49.7751 59.5909 49.2429 59.6818 48.652 59.6818ZM59.8054 50.7727L61.8963 54.3409L63.9872 50.7727H65.5327L62.7145 55.1364L65.5327 59.5H63.9872L61.8963 56.1136L59.8054 59.5H58.2599L61.0327 55.1364L58.2599 50.7727H59.8054ZM68.446 50.7727L70.5369 54.3409L72.6278 50.7727H74.1733L71.3551 55.1364L74.1733 59.5H72.6278L70.5369 56.1136L68.446 59.5H66.9006L69.6733 55.1364L66.9006 50.7727H68.446Z" fill="black"/>
<rect x="189" width="920" height="40" rx="20" fill="#FFF500"/>
<path d="M1155.71 13.8636V25.5H1154.3V15.3409H1154.23L1151.39 17.2273V15.7955L1154.3 13.8636H1155.71ZM1162.69 25.6591C1162.03 25.6591 1161.43 25.5265 1160.89 25.2614C1160.36 24.9962 1159.93 24.6326 1159.61 24.1705C1159.29 23.7083 1159.11 23.1818 1159.08 22.5909H1160.44C1160.5 23.1174 1160.73 23.553 1161.16 23.8977C1161.59 24.2386 1162.1 24.4091 1162.69 24.4091C1163.17 24.4091 1163.59 24.2973 1163.97 24.0739C1164.34 23.8504 1164.63 23.5436 1164.85 23.1534C1165.06 22.7595 1165.17 22.3144 1165.17 21.8182C1165.17 21.3106 1165.06 20.858 1164.83 20.4602C1164.61 20.0587 1164.31 19.7424 1163.93 19.5114C1163.54 19.2803 1163.1 19.1629 1162.6 19.1591C1162.25 19.1553 1161.88 19.2102 1161.5 19.3239C1161.13 19.4337 1160.82 19.5758 1160.58 19.75L1159.26 19.5909L1159.97 13.8636H1166.01V15.1136H1161.15L1160.74 18.5455H1160.81C1161.04 18.3561 1161.34 18.1989 1161.7 18.0739C1162.06 17.9489 1162.44 17.8864 1162.83 17.8864C1163.54 17.8864 1164.18 18.0568 1164.73 18.3977C1165.29 18.7348 1165.73 19.197 1166.05 19.7841C1166.37 20.3712 1166.53 21.0417 1166.53 21.7955C1166.53 22.5379 1166.37 23.2008 1166.03 23.7841C1165.7 24.3636 1165.25 24.822 1164.67 25.1591C1164.09 25.4924 1163.43 25.6591 1162.69 25.6591Z" fill="black"/>
<rect x="189" y="68" width="449" height="40" rx="20" fill="#FF6B00"/>
<path d="M669.941 94.9545V80.4091H670.873V94.9545H669.941ZM673.077 84.7727C673.009 84.197 672.733 83.75 672.248 83.4318C671.763 83.1136 671.168 82.9545 670.464 82.9545C669.949 82.9545 669.498 83.0379 669.112 83.2045C668.729 83.3712 668.43 83.6004 668.214 83.892C668.002 84.1837 667.896 84.5152 667.896 84.8864C667.896 85.197 667.969 85.464 668.117 85.6875C668.269 85.9072 668.462 86.0909 668.697 86.2386C668.932 86.3826 669.178 86.5019 669.435 86.5966C669.693 86.6875 669.93 86.7614 670.146 86.8182L671.327 87.1364C671.63 87.2159 671.968 87.3258 672.339 87.4659C672.714 87.6061 673.072 87.7973 673.413 88.0398C673.757 88.2784 674.041 88.5852 674.265 88.9602C674.488 89.3352 674.6 89.7955 674.6 90.3409C674.6 90.9697 674.435 91.5379 674.106 92.0455C673.78 92.553 673.303 92.9564 672.674 93.2557C672.049 93.5549 671.29 93.7045 670.396 93.7045C669.562 93.7045 668.841 93.5701 668.231 93.3011C667.625 93.0322 667.147 92.6572 666.799 92.1761C666.454 91.6951 666.259 91.1364 666.214 90.5H667.668C667.706 90.9394 667.854 91.303 668.112 91.5909C668.373 91.875 668.702 92.0871 669.1 92.2273C669.502 92.3636 669.933 92.4318 670.396 92.4318C670.933 92.4318 671.416 92.3447 671.844 92.1705C672.272 91.9924 672.612 91.7462 672.862 91.4318C673.112 91.1136 673.237 90.7424 673.237 90.3182C673.237 89.9318 673.129 89.6174 672.913 89.375C672.697 89.1326 672.413 88.9356 672.06 88.7841C671.708 88.6326 671.327 88.5 670.918 88.3864L669.487 87.9773C668.577 87.7159 667.858 87.3428 667.327 86.858C666.797 86.3731 666.532 85.7386 666.532 84.9545C666.532 84.303 666.708 83.7348 667.06 83.25C667.416 82.7614 667.894 82.3826 668.492 82.1136C669.094 81.8409 669.767 81.7045 670.509 81.7045C671.259 81.7045 671.926 81.839 672.509 82.108C673.093 82.3731 673.555 82.7367 673.896 83.1989C674.24 83.661 674.422 84.1856 674.441 84.7727H673.077ZM680.644 93.6591C679.894 93.6591 679.226 93.5303 678.638 93.2727C678.055 93.0152 677.591 92.6572 677.246 92.1989C676.906 91.7367 676.72 91.2008 676.69 90.5909H678.121C678.152 90.9659 678.281 91.2898 678.508 91.5625C678.735 91.8314 679.032 92.0398 679.4 92.1875C679.767 92.3352 680.174 92.4091 680.621 92.4091C681.121 92.4091 681.565 92.322 681.951 92.1477C682.337 91.9735 682.64 91.7311 682.86 91.4205C683.08 91.1098 683.19 90.75 683.19 90.3409C683.19 89.9129 683.084 89.536 682.871 89.2102C682.659 88.8807 682.349 88.6231 681.94 88.4375C681.531 88.2519 681.031 88.1591 680.44 88.1591H679.508V86.9091H680.44C680.902 86.9091 681.307 86.8258 681.656 86.6591C682.008 86.4924 682.282 86.2576 682.479 85.9545C682.68 85.6515 682.781 85.2955 682.781 84.8864C682.781 84.4924 682.693 84.1496 682.519 83.858C682.345 83.5663 682.099 83.339 681.781 83.1761C681.466 83.0133 681.095 82.9318 680.667 82.9318C680.265 82.9318 679.887 83.0057 679.531 83.1534C679.178 83.2973 678.89 83.5076 678.667 83.7841C678.443 84.0568 678.322 84.3864 678.303 84.7727H676.94C676.962 84.1629 677.146 83.6288 677.491 83.1705C677.835 82.7083 678.286 82.3485 678.843 82.0909C679.404 81.8333 680.019 81.7045 680.69 81.7045C681.409 81.7045 682.027 81.8504 682.542 82.142C683.057 82.4299 683.453 82.8106 683.729 83.2841C684.006 83.7576 684.144 84.2689 684.144 84.8182C684.144 85.4735 683.972 86.0322 683.627 86.4943C683.286 86.9564 682.822 87.2765 682.235 87.4545V87.5455C682.97 87.6667 683.544 87.9792 683.957 88.483C684.37 88.983 684.576 89.6023 684.576 90.3409C684.576 90.9735 684.404 91.5417 684.059 92.0455C683.718 92.5455 683.252 92.9394 682.661 93.2273C682.07 93.5152 681.398 93.6591 680.644 93.6591ZM690.695 93.6591C689.839 93.6591 689.11 93.4261 688.508 92.9602C687.906 92.4905 687.445 91.8106 687.127 90.9205C686.809 90.0265 686.65 88.947 686.65 87.6818C686.65 86.4242 686.809 85.3504 687.127 84.4602C687.449 83.5663 687.911 82.8845 688.513 82.4148C689.12 81.9413 689.847 81.7045 690.695 81.7045C691.544 81.7045 692.269 81.9413 692.871 82.4148C693.478 82.8845 693.94 83.5663 694.258 84.4602C694.58 85.3504 694.741 86.4242 694.741 87.6818C694.741 88.947 694.582 90.0265 694.263 90.9205C693.945 91.8106 693.485 92.4905 692.883 92.9602C692.281 93.4261 691.551 93.6591 690.695 93.6591ZM690.695 92.4091C691.544 92.4091 692.203 92 692.673 91.1818C693.142 90.3636 693.377 89.197 693.377 87.6818C693.377 86.6742 693.269 85.8163 693.053 85.108C692.841 84.3996 692.534 83.8598 692.133 83.4886C691.735 83.1174 691.256 82.9318 690.695 82.9318C689.854 82.9318 689.197 83.3466 688.724 84.1761C688.25 85.0019 688.013 86.1705 688.013 87.6818C688.013 88.6894 688.12 89.5455 688.332 90.25C688.544 90.9545 688.849 91.4905 689.246 91.858C689.648 92.2254 690.131 92.4091 690.695 92.4091ZM700.695 93.6591C699.839 93.6591 699.11 93.4261 698.508 92.9602C697.906 92.4905 697.445 91.8106 697.127 90.9205C696.809 90.0265 696.65 88.947 696.65 87.6818C696.65 86.4242 696.809 85.3504 697.127 84.4602C697.449 83.5663 697.911 82.8845 698.513 82.4148C699.12 81.9413 699.847 81.7045 700.695 81.7045C701.544 81.7045 702.269 81.9413 702.871 82.4148C703.478 82.8845 703.94 83.5663 704.258 84.4602C704.58 85.3504 704.741 86.4242 704.741 87.6818C704.741 88.947 704.582 90.0265 704.263 90.9205C703.945 91.8106 703.485 92.4905 702.883 92.9602C702.281 93.4261 701.551 93.6591 700.695 93.6591ZM700.695 92.4091C701.544 92.4091 702.203 92 702.673 91.1818C703.142 90.3636 703.377 89.197 703.377 87.6818C703.377 86.6742 703.269 85.8163 703.053 85.108C702.841 84.3996 702.534 83.8598 702.133 83.4886C701.735 83.1174 701.256 82.9318 700.695 82.9318C699.854 82.9318 699.197 83.3466 698.724 84.1761C698.25 85.0019 698.013 86.1705 698.013 87.6818C698.013 88.6894 698.12 89.5455 698.332 90.25C698.544 90.9545 698.849 91.4905 699.246 91.858C699.648 92.2254 700.131 92.4091 700.695 92.4091ZM710.695 93.6591C709.839 93.6591 709.11 93.4261 708.508 92.9602C707.906 92.4905 707.445 91.8106 707.127 90.9205C706.809 90.0265 706.65 88.947 706.65 87.6818C706.65 86.4242 706.809 85.3504 707.127 84.4602C707.449 83.5663 707.911 82.8845 708.513 82.4148C709.12 81.9413 709.847 81.7045 710.695 81.7045C711.544 81.7045 712.269 81.9413 712.871 82.4148C713.478 82.8845 713.94 83.5663 714.258 84.4602C714.58 85.3504 714.741 86.4242 714.741 87.6818C714.741 88.947 714.582 90.0265 714.263 90.9205C713.945 91.8106 713.485 92.4905 712.883 92.9602C712.281 93.4261 711.551 93.6591 710.695 93.6591ZM710.695 92.4091C711.544 92.4091 712.203 92 712.673 91.1818C713.142 90.3636 713.377 89.197 713.377 87.6818C713.377 86.6742 713.269 85.8163 713.053 85.108C712.841 84.3996 712.534 83.8598 712.133 83.4886C711.735 83.1174 711.256 82.9318 710.695 82.9318C709.854 82.9318 709.197 83.3466 708.724 84.1761C708.25 85.0019 708.013 86.1705 708.013 87.6818C708.013 88.6894 708.12 89.5455 708.332 90.25C708.544 90.9545 708.849 91.4905 709.246 91.858C709.648 92.2254 710.131 92.4091 710.695 92.4091ZM720.695 93.6591C719.839 93.6591 719.11 93.4261 718.508 92.9602C717.906 92.4905 717.445 91.8106 717.127 90.9205C716.809 90.0265 716.65 88.947 716.65 87.6818C716.65 86.4242 716.809 85.3504 717.127 84.4602C717.449 83.5663 717.911 82.8845 718.513 82.4148C719.12 81.9413 719.847 81.7045 720.695 81.7045C721.544 81.7045 722.269 81.9413 722.871 82.4148C723.478 82.8845 723.94 83.5663 724.258 84.4602C724.58 85.3504 724.741 86.4242 724.741 87.6818C724.741 88.947 724.582 90.0265 724.263 90.9205C723.945 91.8106 723.485 92.4905 722.883 92.9602C722.281 93.4261 721.551 93.6591 720.695 93.6591ZM720.695 92.4091C721.544 92.4091 722.203 92 722.673 91.1818C723.142 90.3636 723.377 89.197 723.377 87.6818C723.377 86.6742 723.269 85.8163 723.053 85.108C722.841 84.3996 722.534 83.8598 722.133 83.4886C721.735 83.1174 721.256 82.9318 720.695 82.9318C719.854 82.9318 719.197 83.3466 718.724 84.1761C718.25 85.0019 718.013 86.1705 718.013 87.6818C718.013 88.6894 718.12 89.5455 718.332 90.25C718.544 90.9545 718.849 91.4905 719.246 91.858C719.648 92.2254 720.131 92.4091 720.695 92.4091Z" fill="black"/>
</svg>
