<svg width="185" height="29" viewBox="0 0 185 29" fill="none" xmlns="http://www.w3.org/2000/svg">
<rect width="184.323" height="29" rx="10" fill="#D9D9D9"/>
<path d="M15.875 16.2969H17.8281C17.7656 17.0417 17.5573 17.7057 17.2031 18.2891C16.849 18.8672 16.3516 19.3229 15.7109 19.6562C15.0703 19.9896 14.2917 20.1562 13.375 20.1562C12.6719 20.1562 12.0391 20.0312 11.4766 19.7812C10.9141 19.526 10.4323 19.1667 10.0312 18.7031C9.63021 18.2344 9.32292 17.6693 9.10938 17.0078C8.90104 16.3464 8.79688 15.6068 8.79688 14.7891V13.8438C8.79688 13.026 8.90365 12.2865 9.11719 11.625C9.33594 10.9635 9.64844 10.3984 10.0547 9.92969C10.4609 9.45573 10.9479 9.09375 11.5156 8.84375C12.0885 8.59375 12.7318 8.46875 13.4453 8.46875C14.3516 8.46875 15.1172 8.63542 15.7422 8.96875C16.3672 9.30208 16.8516 9.76302 17.1953 10.3516C17.5443 10.9401 17.7578 11.6146 17.8359 12.375H15.8828C15.8307 11.8854 15.7161 11.4661 15.5391 11.1172C15.3672 10.7682 15.112 10.5026 14.7734 10.3203C14.4349 10.1328 13.9922 10.0391 13.4453 10.0391C12.9974 10.0391 12.6068 10.1224 12.2734 10.2891C11.9401 10.4557 11.6615 10.7005 11.4375 11.0234C11.2135 11.3464 11.0443 11.7448 10.9297 12.2188C10.8203 12.6875 10.7656 13.224 10.7656 13.8281V14.7891C10.7656 15.362 10.8151 15.8828 10.9141 16.3516C11.0182 16.8151 11.1745 17.2135 11.3828 17.5469C11.5964 17.8802 11.8672 18.138 12.1953 18.3203C12.5234 18.5026 12.9167 18.5938 13.375 18.5938C13.9323 18.5938 14.3828 18.5052 14.7266 18.3281C15.0755 18.151 15.3385 17.8932 15.5156 17.5547C15.6979 17.2109 15.8177 16.7917 15.875 16.2969ZM19.0625 15.8672V15.6875C19.0625 15.0781 19.151 14.513 19.3281 13.9922C19.5052 13.4661 19.7604 13.0104 20.0938 12.625C20.4323 12.2344 20.8438 11.9323 21.3281 11.7188C21.8177 11.5 22.3698 11.3906 22.9844 11.3906C23.6042 11.3906 24.1562 11.5 24.6406 11.7188C25.1302 11.9323 25.5443 12.2344 25.8828 12.625C26.2214 13.0104 26.4792 13.4661 26.6562 13.9922C26.8333 14.513 26.9219 15.0781 26.9219 15.6875V15.8672C26.9219 16.4766 26.8333 17.0417 26.6562 17.5625C26.4792 18.0833 26.2214 18.5391 25.8828 18.9297C25.5443 19.3151 25.1328 19.6172 24.6484 19.8359C24.1641 20.0495 23.6146 20.1562 23 20.1562C22.3802 20.1562 21.8255 20.0495 21.3359 19.8359C20.8516 19.6172 20.4401 19.3151 20.1016 18.9297C19.763 18.5391 19.5052 18.0833 19.3281 17.5625C19.151 17.0417 19.0625 16.4766 19.0625 15.8672ZM20.9453 15.6875V15.8672C20.9453 16.2474 20.9844 16.6068 21.0625 16.9453C21.1406 17.2839 21.263 17.5807 21.4297 17.8359C21.5964 18.0911 21.8099 18.2917 22.0703 18.4375C22.3307 18.5833 22.6406 18.6562 23 18.6562C23.349 18.6562 23.651 18.5833 23.9062 18.4375C24.1667 18.2917 24.3802 18.0911 24.5469 17.8359C24.7135 17.5807 24.8359 17.2839 24.9141 16.9453C24.9974 16.6068 25.0391 16.2474 25.0391 15.8672V15.6875C25.0391 15.3125 24.9974 14.9583 24.9141 14.625C24.8359 14.2865 24.7109 13.987 24.5391 13.7266C24.3724 13.4661 24.1589 13.263 23.8984 13.1172C23.6432 12.9661 23.3385 12.8906 22.9844 12.8906C22.6302 12.8906 22.3229 12.9661 22.0625 13.1172C21.8073 13.263 21.5964 13.4661 21.4297 13.7266C21.263 13.987 21.1406 14.2865 21.0625 14.625C20.9844 14.9583 20.9453 15.3125 20.9453 15.6875ZM31.9531 18.6562C32.2604 18.6562 32.5365 18.5964 32.7812 18.4766C33.0312 18.3516 33.2318 18.1797 33.3828 17.9609C33.5391 17.7422 33.625 17.4896 33.6406 17.2031H35.4141C35.4036 17.75 35.2422 18.2474 34.9297 18.6953C34.6172 19.1432 34.2031 19.5 33.6875 19.7656C33.1719 20.026 32.6016 20.1562 31.9766 20.1562C31.3307 20.1562 30.7682 20.0469 30.2891 19.8281C29.8099 19.6042 29.4115 19.2969 29.0938 18.9062C28.776 18.5156 28.5365 18.0651 28.375 17.5547C28.2188 17.0443 28.1406 16.4974 28.1406 15.9141V15.6406C28.1406 15.0573 28.2188 14.5104 28.375 14C28.5365 13.4844 28.776 13.0312 29.0938 12.6406C29.4115 12.25 29.8099 11.9453 30.2891 11.7266C30.7682 11.5026 31.3281 11.3906 31.9688 11.3906C32.6458 11.3906 33.2396 11.526 33.75 11.7969C34.2604 12.0625 34.6615 12.4349 34.9531 12.9141C35.25 13.388 35.4036 13.9401 35.4141 14.5703H33.6406C33.625 14.2578 33.5469 13.9766 33.4062 13.7266C33.2708 13.4714 33.0781 13.2682 32.8281 13.1172C32.5833 12.9661 32.2891 12.8906 31.9453 12.8906C31.5651 12.8906 31.25 12.9688 31 13.125C30.75 13.276 30.5547 13.4844 30.4141 13.75C30.2734 14.0104 30.1719 14.3047 30.1094 14.6328C30.0521 14.9557 30.0234 15.2917 30.0234 15.6406V15.9141C30.0234 16.263 30.0521 16.6016 30.1094 16.9297C30.1667 17.2578 30.2656 17.5521 30.4062 17.8125C30.5521 18.0677 30.75 18.2734 31 18.4297C31.25 18.5807 31.5677 18.6562 31.9531 18.6562ZM38.875 11.5469V20H36.9844V11.5469H38.875ZM36.8594 9.32812C36.8594 9.04167 36.9531 8.80469 37.1406 8.61719C37.3333 8.42448 37.599 8.32812 37.9375 8.32812C38.2708 8.32812 38.5339 8.42448 38.7266 8.61719C38.9193 8.80469 39.0156 9.04167 39.0156 9.32812C39.0156 9.60938 38.9193 9.84375 38.7266 10.0312C38.5339 10.2188 38.2708 10.3125 37.9375 10.3125C37.599 10.3125 37.3333 10.2188 37.1406 10.0312C36.9531 9.84375 36.8594 9.60938 36.8594 9.32812ZM42.8047 13.3516V20H40.9219V11.5469H42.6953L42.8047 13.3516ZM42.4688 15.4609L41.8594 15.4531C41.8646 14.8542 41.9479 14.3047 42.1094 13.8047C42.276 13.3047 42.5052 12.875 42.7969 12.5156C43.0938 12.1562 43.4479 11.8802 43.8594 11.6875C44.2708 11.4896 44.7292 11.3906 45.2344 11.3906C45.6406 11.3906 46.0078 11.4479 46.3359 11.5625C46.6693 11.6719 46.9531 11.8516 47.1875 12.1016C47.4271 12.3516 47.6094 12.6771 47.7344 13.0781C47.8594 13.474 47.9219 13.9609 47.9219 14.5391V20H46.0312V14.5312C46.0312 14.125 45.9714 13.8047 45.8516 13.5703C45.737 13.3307 45.5677 13.1615 45.3438 13.0625C45.125 12.9583 44.8516 12.9062 44.5234 12.9062C44.2005 12.9062 43.9115 12.974 43.6562 13.1094C43.401 13.2448 43.1849 13.4297 43.0078 13.6641C42.8359 13.8984 42.7031 14.1693 42.6094 14.4766C42.5156 14.7839 42.4688 15.112 42.4688 15.4609ZM54.6094 18.3047V14.2734C54.6094 13.9714 54.5547 13.7109 54.4453 13.4922C54.3359 13.2734 54.1693 13.1042 53.9453 12.9844C53.7266 12.8646 53.4505 12.8047 53.1172 12.8047C52.8099 12.8047 52.5443 12.8568 52.3203 12.9609C52.0964 13.0651 51.9219 13.2057 51.7969 13.3828C51.6719 13.5599 51.6094 13.7604 51.6094 13.9844H49.7344C49.7344 13.651 49.8151 13.3281 49.9766 13.0156C50.138 12.7031 50.3724 12.4245 50.6797 12.1797C50.987 11.9349 51.3542 11.7422 51.7812 11.6016C52.2083 11.4609 52.6875 11.3906 53.2188 11.3906C53.8542 11.3906 54.4167 11.4974 54.9062 11.7109C55.401 11.9245 55.7891 12.2474 56.0703 12.6797C56.3568 13.1068 56.5 13.6432 56.5 14.2891V18.0469C56.5 18.4323 56.526 18.7786 56.5781 19.0859C56.6354 19.388 56.7161 19.651 56.8203 19.875V20H54.8906C54.8021 19.7969 54.7318 19.5391 54.6797 19.2266C54.6328 18.9089 54.6094 18.6016 54.6094 18.3047ZM54.8828 14.8594L54.8984 16.0234H53.5469C53.1979 16.0234 52.8906 16.0573 52.625 16.125C52.3594 16.1875 52.138 16.2812 51.9609 16.4062C51.7839 16.5312 51.651 16.6823 51.5625 16.8594C51.474 17.0365 51.4297 17.237 51.4297 17.4609C51.4297 17.6849 51.4818 17.8906 51.5859 18.0781C51.6901 18.2604 51.8411 18.4036 52.0391 18.5078C52.2422 18.612 52.487 18.6641 52.7734 18.6641C53.1589 18.6641 53.4948 18.5859 53.7812 18.4297C54.0729 18.2682 54.3021 18.0729 54.4688 17.8438C54.6354 17.6094 54.724 17.388 54.7344 17.1797L55.3438 18.0156C55.2812 18.2292 55.1745 18.4583 55.0234 18.7031C54.8724 18.9479 54.6745 19.1823 54.4297 19.4062C54.1901 19.625 53.901 19.8047 53.5625 19.9453C53.2292 20.0859 52.8438 20.1562 52.4062 20.1562C51.8542 20.1562 51.362 20.0469 50.9297 19.8281C50.4974 19.6042 50.1589 19.3047 49.9141 18.9297C49.6693 18.5495 49.5469 18.1198 49.5469 17.6406C49.5469 17.1927 49.6302 16.7969 49.7969 16.4531C49.9688 16.1042 50.2188 15.8125 50.5469 15.5781C50.8802 15.3438 51.2865 15.1667 51.7656 15.0469C52.2448 14.9219 52.7917 14.8594 53.4062 14.8594H54.8828Z" fill="#727272"/>
<path d="M164.833 20.6265L155.343 11.1371C154.886 10.6794 154.886 9.93743 155.343 9.47981L156.45 8.37302C156.907 7.91614 157.647 7.91526 158.105 8.37107L165.661 15.8916L173.217 8.37107C173.675 7.91526 174.416 7.91614 174.873 8.37302L175.979 9.47981C176.437 9.93748 176.437 10.6795 175.979 11.1371L166.49 20.6265C166.032 21.0842 165.29 21.0842 164.833 20.6265Z" fill="#727272"/>
</svg>
