<svg width="131" height="29" viewBox="0 0 131 29" fill="none" xmlns="http://www.w3.org/2000/svg">
<rect x="0.839844" width="129.323" height="29" rx="10" fill="#D9D9D9"/>
<path d="M17.1133 13.3594V15.2188C17.1133 16.1094 17.0247 16.8698 16.8477 17.5C16.6758 18.125 16.4258 18.6328 16.0977 19.0234C15.7695 19.4141 15.3763 19.7005 14.918 19.8828C14.4648 20.0651 13.957 20.1562 13.3945 20.1562C12.9466 20.1562 12.5299 20.099 12.1445 19.9844C11.7643 19.8698 11.4206 19.6901 11.1133 19.4453C10.806 19.2005 10.543 18.8854 10.3242 18.5C10.1107 18.1094 9.94401 17.6432 9.82422 17.1016C9.70964 16.5599 9.65234 15.9323 9.65234 15.2188V13.3594C9.65234 12.4635 9.74089 11.7083 9.91797 11.0938C10.0951 10.474 10.3477 9.97135 10.6758 9.58594C11.0039 9.19531 11.3945 8.91146 11.8477 8.73438C12.306 8.55729 12.8164 8.46875 13.3789 8.46875C13.832 8.46875 14.2487 8.52604 14.6289 8.64062C15.0143 8.75 15.3581 8.92448 15.6602 9.16406C15.9674 9.40365 16.2279 9.71615 16.4414 10.1016C16.6602 10.4818 16.8268 10.9427 16.9414 11.4844C17.056 12.0208 17.1133 12.6458 17.1133 13.3594ZM15.2305 15.4844V13.0781C15.2305 12.625 15.2044 12.2266 15.1523 11.8828C15.1003 11.5339 15.0221 11.2396 14.918 11C14.819 10.7552 14.694 10.5573 14.543 10.4062C14.3919 10.25 14.2201 10.138 14.0273 10.0703C13.8346 9.9974 13.6185 9.96094 13.3789 9.96094C13.0872 9.96094 12.8268 10.0182 12.5977 10.1328C12.3685 10.2422 12.1758 10.4193 12.0195 10.6641C11.8633 10.9089 11.7435 11.2318 11.6602 11.6328C11.582 12.0286 11.543 12.5104 11.543 13.0781V15.4844C11.543 15.9427 11.569 16.3464 11.6211 16.6953C11.6732 17.0443 11.7513 17.3438 11.8555 17.5938C11.9596 17.8385 12.0846 18.0417 12.2305 18.2031C12.3815 18.3594 12.5534 18.474 12.7461 18.5469C12.944 18.6198 13.1602 18.6562 13.3945 18.6562C13.6914 18.6562 13.9544 18.599 14.1836 18.4844C14.4128 18.3698 14.6055 18.1875 14.7617 17.9375C14.918 17.6823 15.0352 17.3516 15.1133 16.9453C15.1914 16.5391 15.2305 16.0521 15.2305 15.4844ZM20.3086 18.5156H20.4648C21.1836 18.5156 21.7826 18.4219 22.2617 18.2344C22.7461 18.0417 23.1315 17.776 23.418 17.4375C23.7044 17.099 23.9102 16.7005 24.0352 16.2422C24.1602 15.7839 24.2227 15.2865 24.2227 14.75V12.7891C24.2227 12.3255 24.1732 11.9193 24.0742 11.5703C23.9805 11.2161 23.8451 10.9219 23.668 10.6875C23.4961 10.4479 23.2956 10.2682 23.0664 10.1484C22.8424 10.0286 22.6003 9.96875 22.3398 9.96875C22.0534 9.96875 21.7956 10.0339 21.5664 10.1641C21.3424 10.2891 21.1523 10.4635 20.9961 10.6875C20.8451 10.9062 20.7279 11.1641 20.6445 11.4609C20.5664 11.7526 20.5273 12.0651 20.5273 12.3984C20.5273 12.7109 20.5638 13.013 20.6367 13.3047C20.7148 13.5911 20.8294 13.8464 20.9805 14.0703C21.1315 14.2943 21.3216 14.4714 21.5508 14.6016C21.7799 14.7318 22.0482 14.7969 22.3555 14.7969C22.6471 14.7969 22.9154 14.7422 23.1602 14.6328C23.4049 14.5182 23.6185 14.3646 23.8008 14.1719C23.9831 13.9792 24.1263 13.763 24.2305 13.5234C24.3346 13.2839 24.3919 13.0391 24.4023 12.7891L25.1211 13.0078C25.1211 13.4036 25.0378 13.7943 24.8711 14.1797C24.7096 14.5599 24.4831 14.9089 24.1914 15.2266C23.9049 15.5391 23.569 15.7891 23.1836 15.9766C22.8034 16.1641 22.3893 16.2578 21.9414 16.2578C21.3997 16.2578 20.9206 16.1562 20.5039 15.9531C20.0924 15.7448 19.7487 15.4635 19.4727 15.1094C19.2018 14.7552 18.9987 14.349 18.8633 13.8906C18.7279 13.4323 18.6602 12.9505 18.6602 12.4453C18.6602 11.8984 18.7435 11.3854 18.9102 10.9062C19.0768 10.4271 19.319 10.0052 19.6367 9.64062C19.9544 9.27083 20.3398 8.98438 20.793 8.78125C21.2513 8.57292 21.7695 8.46875 22.3477 8.46875C22.9622 8.46875 23.5013 8.58854 23.9648 8.82812C24.4284 9.06771 24.819 9.39844 25.1367 9.82031C25.4544 10.2422 25.694 10.7318 25.8555 11.2891C26.0169 11.8464 26.0977 12.4453 26.0977 13.0859V13.75C26.0977 14.4219 26.0378 15.0703 25.918 15.6953C25.7982 16.3151 25.6029 16.8906 25.332 17.4219C25.0664 17.9479 24.7148 18.4115 24.2773 18.8125C23.8451 19.2083 23.3138 19.5182 22.6836 19.7422C22.0586 19.9609 21.3242 20.0703 20.4805 20.0703H20.3086V18.5156ZM32.9414 8.625L28.5117 20.9766H27.0352L31.4727 8.625H32.9414ZM39.2773 8.58594V20H37.3945V10.8203L34.6055 11.7656V10.2109L39.0508 8.58594H39.2773ZM50.8555 18.5V20H43.2305V18.7109L46.9336 14.6719C47.3398 14.2135 47.6602 13.8177 47.8945 13.4844C48.1289 13.151 48.293 12.8516 48.3867 12.5859C48.4857 12.3151 48.5352 12.0521 48.5352 11.7969C48.5352 11.4375 48.4674 11.1224 48.332 10.8516C48.2018 10.5755 48.0091 10.3594 47.7539 10.2031C47.4987 10.0417 47.1888 9.96094 46.8242 9.96094C46.4023 9.96094 46.0482 10.0521 45.7617 10.2344C45.4753 10.4167 45.2591 10.6693 45.1133 10.9922C44.9674 11.3099 44.8945 11.6745 44.8945 12.0859H43.0117C43.0117 11.4245 43.1628 10.8203 43.4648 10.2734C43.7669 9.72135 44.2044 9.28385 44.7773 8.96094C45.3503 8.63281 46.0404 8.46875 46.8477 8.46875C47.6081 8.46875 48.2539 8.59635 48.7852 8.85156C49.3164 9.10677 49.7201 9.46875 49.9961 9.9375C50.2773 10.4062 50.418 10.9609 50.418 11.6016C50.418 11.9557 50.3607 12.3073 50.2461 12.6562C50.1315 13.0052 49.9674 13.3542 49.7539 13.7031C49.5456 14.0469 49.2982 14.3932 49.0117 14.7422C48.7253 15.0859 48.4102 15.4349 48.0664 15.7891L45.6055 18.5H50.8555ZM57.3789 8.625L52.9492 20.9766H51.4727L55.9102 8.625H57.3789ZM66.1992 18.5V20H58.5742V18.7109L62.2773 14.6719C62.6836 14.2135 63.0039 13.8177 63.2383 13.4844C63.4727 13.151 63.6367 12.8516 63.7305 12.5859C63.8294 12.3151 63.8789 12.0521 63.8789 11.7969C63.8789 11.4375 63.8112 11.1224 63.6758 10.8516C63.5456 10.5755 63.3529 10.3594 63.0977 10.2031C62.8424 10.0417 62.5326 9.96094 62.168 9.96094C61.7461 9.96094 61.3919 10.0521 61.1055 10.2344C60.819 10.4167 60.6029 10.6693 60.457 10.9922C60.3112 11.3099 60.2383 11.6745 60.2383 12.0859H58.3555C58.3555 11.4245 58.5065 10.8203 58.8086 10.2734C59.1107 9.72135 59.5482 9.28385 60.1211 8.96094C60.694 8.63281 61.3841 8.46875 62.1914 8.46875C62.9518 8.46875 63.5977 8.59635 64.1289 8.85156C64.6602 9.10677 65.0638 9.46875 65.3398 9.9375C65.6211 10.4062 65.7617 10.9609 65.7617 11.6016C65.7617 11.9557 65.7044 12.3073 65.5898 12.6562C65.4753 13.0052 65.3112 13.3542 65.0977 13.7031C64.8893 14.0469 64.6419 14.3932 64.3555 14.7422C64.069 15.0859 63.7539 15.4349 63.4102 15.7891L60.9492 18.5H66.1992ZM75.082 13.3594V15.2188C75.082 16.1094 74.9935 16.8698 74.8164 17.5C74.6445 18.125 74.3945 18.6328 74.0664 19.0234C73.7383 19.4141 73.3451 19.7005 72.8867 19.8828C72.4336 20.0651 71.9258 20.1562 71.3633 20.1562C70.9154 20.1562 70.4987 20.099 70.1133 19.9844C69.7331 19.8698 69.3893 19.6901 69.082 19.4453C68.7747 19.2005 68.5117 18.8854 68.293 18.5C68.0794 18.1094 67.9128 17.6432 67.793 17.1016C67.6784 16.5599 67.6211 15.9323 67.6211 15.2188V13.3594C67.6211 12.4635 67.7096 11.7083 67.8867 11.0938C68.0638 10.474 68.3164 9.97135 68.6445 9.58594C68.9727 9.19531 69.3633 8.91146 69.8164 8.73438C70.2747 8.55729 70.7852 8.46875 71.3477 8.46875C71.8008 8.46875 72.2174 8.52604 72.5977 8.64062C72.9831 8.75 73.3268 8.92448 73.6289 9.16406C73.9362 9.40365 74.1966 9.71615 74.4102 10.1016C74.6289 10.4818 74.7956 10.9427 74.9102 11.4844C75.0247 12.0208 75.082 12.6458 75.082 13.3594ZM73.1992 15.4844V13.0781C73.1992 12.625 73.1732 12.2266 73.1211 11.8828C73.069 11.5339 72.9909 11.2396 72.8867 11C72.7878 10.7552 72.6628 10.5573 72.5117 10.4062C72.3607 10.25 72.1888 10.138 71.9961 10.0703C71.8034 9.9974 71.5872 9.96094 71.3477 9.96094C71.056 9.96094 70.7956 10.0182 70.5664 10.1328C70.3372 10.2422 70.1445 10.4193 69.9883 10.6641C69.832 10.9089 69.7122 11.2318 69.6289 11.6328C69.5508 12.0286 69.5117 12.5104 69.5117 13.0781V15.4844C69.5117 15.9427 69.5378 16.3464 69.5898 16.6953C69.6419 17.0443 69.7201 17.3438 69.8242 17.5938C69.9284 17.8385 70.0534 18.0417 70.1992 18.2031C70.3503 18.3594 70.5221 18.474 70.7148 18.5469C70.9128 18.6198 71.1289 18.6562 71.3633 18.6562C71.6602 18.6562 71.9232 18.599 72.1523 18.4844C72.3815 18.3698 72.5742 18.1875 72.7305 17.9375C72.8867 17.6823 73.0039 17.3516 73.082 16.9453C73.1602 16.5391 73.1992 16.0521 73.1992 15.4844ZM81.9023 8.58594V20H80.0195V10.8203L77.2305 11.7656V10.2109L81.6758 8.58594H81.9023ZM93.293 16.8984C93.293 17.6068 93.1289 18.2031 92.8008 18.6875C92.4727 19.1719 92.0247 19.5391 91.457 19.7891C90.8945 20.0339 90.2591 20.1562 89.5508 20.1562C88.8424 20.1562 88.2044 20.0339 87.6367 19.7891C87.069 19.5391 86.6211 19.1719 86.293 18.6875C85.9648 18.2031 85.8008 17.6068 85.8008 16.8984C85.8008 16.4297 85.8919 16.0052 86.0742 15.625C86.2565 15.2396 86.5143 14.9089 86.8477 14.6328C87.1862 14.3516 87.582 14.1354 88.0352 13.9844C88.4935 13.8333 88.9935 13.7578 89.5352 13.7578C90.2539 13.7578 90.8971 13.8906 91.4648 14.1562C92.0326 14.4219 92.4779 14.7891 92.8008 15.2578C93.1289 15.7266 93.293 16.2734 93.293 16.8984ZM91.4023 16.8047C91.4023 16.4245 91.3242 16.0911 91.168 15.8047C91.0117 15.5182 90.793 15.2969 90.5117 15.1406C90.2305 14.9844 89.9049 14.9062 89.5352 14.9062C89.1602 14.9062 88.8346 14.9844 88.5586 15.1406C88.2826 15.2969 88.0664 15.5182 87.9102 15.8047C87.7591 16.0911 87.6836 16.4245 87.6836 16.8047C87.6836 17.1901 87.7591 17.5234 87.9102 17.8047C88.0612 18.0807 88.2773 18.2917 88.5586 18.4375C88.8398 18.5833 89.1706 18.6562 89.5508 18.6562C89.931 18.6562 90.2591 18.5833 90.5352 18.4375C90.8112 18.2917 91.0247 18.0807 91.1758 17.8047C91.3268 17.5234 91.4023 17.1901 91.4023 16.8047ZM93.0352 11.6172C93.0352 12.1849 92.8841 12.6901 92.582 13.1328C92.2852 13.5755 91.8737 13.9245 91.3477 14.1797C90.8216 14.4297 90.2227 14.5547 89.5508 14.5547C88.8737 14.5547 88.2695 14.4297 87.7383 14.1797C87.2122 13.9245 86.7982 13.5755 86.4961 13.1328C86.1992 12.6901 86.0508 12.1849 86.0508 11.6172C86.0508 10.9401 86.1992 10.3698 86.4961 9.90625C86.7982 9.4375 87.2122 9.08073 87.7383 8.83594C88.2643 8.59115 88.8659 8.46875 89.543 8.46875C90.2201 8.46875 90.8216 8.59115 91.3477 8.83594C91.8737 9.08073 92.2852 9.4375 92.582 9.90625C92.8841 10.3698 93.0352 10.9401 93.0352 11.6172ZM91.1523 11.6797C91.1523 11.3411 91.0846 11.0443 90.9492 10.7891C90.819 10.5286 90.6341 10.3255 90.3945 10.1797C90.1549 10.0339 89.8711 9.96094 89.543 9.96094C89.2148 9.96094 88.931 10.0312 88.6914 10.1719C88.4518 10.3125 88.2669 10.5104 88.1367 10.7656C88.0065 11.0208 87.9414 11.3255 87.9414 11.6797C87.9414 12.0286 88.0065 12.3333 88.1367 12.5938C88.2669 12.849 88.4518 13.0495 88.6914 13.1953C88.9362 13.3411 89.2227 13.4141 89.5508 13.4141C89.8789 13.4141 90.1628 13.3411 90.4023 13.1953C90.6419 13.0495 90.8268 12.849 90.957 12.5938C91.0872 12.3333 91.1523 12.0286 91.1523 11.6797Z" fill="#727272"/>
<path d="M110.672 20.6265L101.183 11.1371C100.725 10.6794 100.725 9.93743 101.183 9.47981L102.29 8.37302C102.747 7.91614 103.487 7.91526 103.945 8.37107L111.501 15.8916L119.057 8.37107C119.515 7.91526 120.256 7.91614 120.712 8.37302L121.819 9.47981C122.277 9.93748 122.277 10.6795 121.819 11.1371L112.33 20.6265C111.872 21.0842 111.13 21.0842 110.672 20.6265Z" fill="#727272"/>
</svg>
