<?xml version="1.0" encoding="utf-8"?>
<!-- Generator: Adobe Illustrator 27.2.0, SVG Export Plug-In . SVG Version: 6.00 Build 0)  -->
<svg version="1.1" id="Capa_1" xmlns="http://www.w3.org/2000/svg" xmlns:xlink="http://www.w3.org/1999/xlink" x="0px" y="0px"
	 viewBox="0 0 600 614.9" style="enable-background:new 0 0 600 614.9;" xml:space="preserve">
<style type="text/css">
	.st0{fill:#E1950D;stroke:#E1950D;stroke-width:0.75;stroke-miterlimit:10;}
	.st1{fill:#E1950D;stroke:#E1950D;stroke-miterlimit:10;}
	.st2{fill:#030304;}
	.st3{fill:#404040;}
	.st4{fill:#020203;}
	.st5{fill:#3F3F3F;}
	.st6{fill:#424142;}
	.st7{fill:#BFBEBF;}
	.st8{fill:#434342;}
	.st9{fill:#393939;}
	.st10{fill:#FFFFFF;}
	.st11{fill:#020203;stroke:#020203;stroke-width:3;stroke-miterlimit:10;}
	.st12{fill:#FFFFFF;stroke:#020203;stroke-width:3;stroke-miterlimit:10;}
	.st13{fill:#E1950D;}
</style>
<polyline class="st0" points="20.8,357.1 312.5,604.9 585.2,357.1 "/>
<rect x="21" class="st1" width="564" height="356.8"/>
<g id="Capa_2_00000143591514155180250740000010657369604717093548_">
	<path class="st2" d="M416.4,56c-0.6,0.7-1.2,5.2-1.8,12.3c-0.7,9.4-1,20.5-0.5,23.7c0.3,2.3,1.1,3.9,2.8,6.1
		c2.5,3.1,3.1,4.1,3.5,5.7c0.2,0.7,0.2,1,0.2,2.5c0,1-0.1,2.5-0.2,3.4c-0.1,0.9-0.5,4.8-0.8,8.6c-1.9,19.7-2.4,27.4-2.5,37
		c-0.1,8.4,0.4,14.4,1.4,17c1.2,3.1,4.4,4.2,7,2.5c1.5-0.9,2.2-2.4,2.7-5c0.5-3.1,0.7-5.4,0.6-9.6c-0.1-4.1-0.2-5.3-1.1-14.8
		c-1.2-12.3-1.6-17.6-2-26.6c-0.2-4.3-0.3-13-0.2-14c0.2-1.8,0.7-2.7,2.4-4.8c2.7-3.3,3.8-5.6,4.1-9c0.2-1.5,0.2-7.6,0.1-11.1
		c-0.3-7.9-1-17.4-1.7-22c-0.6-4-0.9-2.7-1.2,5.8c-0.3,10.1-0.5,12.2-0.7,14.8c-0.3,3.5-0.6,5.1-1.1,4.9c-0.3-0.1-0.5-0.6-0.6-1.7
		c-0.4-2.2-0.5-5.2-0.7-14.3c-0.1-6.3-0.2-9.1-0.4-10.4c-0.2-1.7-0.5-1.5-0.7,0.4c-0.1,1-0.3,5.9-0.5,11.8
		c-0.3,10-0.7,13.9-1.6,14.2c-0.2,0.1-0.6-0.4-0.7-1.1c-0.5-2-0.6-4.7-0.7-13.9c-0.1-9.9-0.2-12.6-0.6-12.6c-0.4,0-0.7,3.1-1,10.8
		c-0.5,12.9-0.9,16.8-1.7,16.8c-0.3,0-0.7-1.4-0.9-3.4c-0.2-2.5-0.3-5.8-0.5-15.7c-0.1-5.9-0.2-8.2-0.4-8.5
		C416.6,55.9,416.5,55.9,416.4,56z"/>
	<path class="st2" d="M188.4,95.1c-0.8,0.2-1.1,0.3-1.6,0.6c-4.7,2.4-8.9,12.6-10,24.2c-0.6,6-0.4,10.1,0.6,13.2
		c1.1,3.4,2.6,5.5,6.4,8.6c2,1.6,2.4,2,2.7,2.7l0.2,0.5l-0.1,4.1c-0.2,13.2-0.7,20.9-2.3,37.1c-0.8,7.6-0.9,9-1.1,11.7
		c-0.4,5.9-0.2,9.9,0.5,13.8c0.4,2.3,0.9,3.5,1.8,4.5c0.9,1.1,2.1,1.6,3.4,1.6c2.2,0,4-1.4,4.8-3.8c0.2-0.6,0.5-2.2,0.7-3.8
		c0.3-2,0.4-4.6,0.3-7.4c-0.1-4-0.3-6.4-1.2-16.9c-1.3-15.2-1.8-22.7-2-34.8c-0.1-7.3-0.2-6.8,0.9-7.9c0.4-0.4,1.3-1.2,2.1-1.7
		c3.8-2.6,5.4-4.8,6.5-8.2c0.7-2.3,0.9-3.7,0.9-7.5c0-6.9-0.9-13.2-2.8-18.6c-2.1-6.4-5.3-10.6-8.7-11.7
		C190,95.1,188.7,95,188.4,95.1z"/>
	<g>
		<path class="st2" d="M300,253.7c-1.3-0.5-2,0.4-2.5,1.3c-1.4,2.7-2.7,5.5-3.9,8.3c-2.3,5.3-5.6,9.8-10.8,12.7
			c-0.8,0.4-1.7,0.5-2.5,0.2c-1.5-0.7-0.8-2.2-0.4-3.4c2.3-6.9,5.1-13.6,8.6-20c1.3-2.5,2.6-5,2.1-8c0.1-1.2-0.1-2.3-0.6-3.3
			c-0.4-2.8-3.3-3.9-7.2-3.5c-5.1,0.6-9,3.6-12.6,7.1c-0.7,0.7-1.2,1.6-2.5,1.7c1.1-5.4,0.5-6.2-3.7-5.1c-1.5,0.7-3.2,0.7-4.8,1.1
			c-1,0.2-2.1,0.3-3.1,0.7c-0.4,1.4,0.6,2.4,0.3,3.8c0,0.3,0.2,0.3,0,1c-3.1,11.4-9.1,21.5-16.6,30.6c-2.3,2.8-5.1,5-8.3,6.7
			s-6.7,1.4-7.7-0.8c-1.7-3.8-0.8-7.6,0-11.4c0.5-2.3,2.8-1.5,4.9-2.6c0.9-0.5,2-1,2.5-1.3c7.1-3.5,12.1-6.6,16.8-14.3
			c1.6-2.6,1.6-5.3,0.3-7.9c-1-1.9-2.9-2.5-5-1.9c-1.2-0.1-2.3,0.1-3.3,0.6c-2.6,0.6-5,1.6-7.3,3c-7.4,4.3-13.2,10.2-17.1,17.8
			c-2.1,4.2-4.1,8.9-3.6,13.7c0.4,4.1-2.1,5.7-4.2,7.9c-0.7,0.7-1.7,1-2.5,0.5c-0.8-0.5-1.4-1.5-1.1-2.5c0.6-2.3,0.6-4.6,1.2-6.9
			c1.6-5.4,4-10.5,6-15.6c1.6-4,3.7-7.8,3.2-12.3c-1.1-1.4-2.3-0.1-3.4,0c-0.9,0.2-1.8,0.4-2.6,0.6c-3.4,0.9-6.3,1.9-6.5,6.4
			c-0.1,2.6-1,5.3-1.9,7.8c-2.5,7.2-5.8,14-9.6,20.5c-1.5,2.6-3.3,5.4-6.3,7c-1.1,0.6-1.7,0.6-2.6,0c-0.8-0.6-1.4-1-1.2-2.4
			c0.4-2.2,1.2-4.2,2-6.2c3.4-8.6,7.2-17.1,9.3-26.1c0-1.1,0-2.2-0.8-3.1c-2.2-0.8-4.3,0.4-6.4,0.7c-1.3,0.8-3,0.4-4.3,1.2
			c-1.6,1.1-0.2,2.7-0.4,4c-0.6,4.1-2.5,7.8-3.8,11.6c-2,6.3-5.9,12-5.8,19.1c0.1,5.6,4.3,8.5,8.6,7.5c4.5-1.1,7.6-4.2,10.3-7.7
			c1.6-2,2.7-4.4,4.9-6.6c0.4,2.2,0.7,4.1,1.1,5.9c0.5,2.3,3,4.1,5.3,3.7c2.6-0.4,5.1-0.9,7.3-2.9c1.2-1.2,2.2-2.5,3.4-3.7
			c0.6-0.6,1.7-2.3,2.5-1c2.3,3.9,5.9,4.6,9.8,4.7c1-0.5,2.1-0.7,3.3-0.6c5.2-1.7,8.9-5.1,12.5-9c1.2-1.4,1.9-3.6,4.5-4
			c-0.9,2.3-1.7,4.3-2.5,6.3c-0.9,2.4-0.4,2.9,2,2.5c2.1-0.4,4.2-1,6.4-1.2c1.6-0.2,2.5-1.1,2.9-2.4c2.4-6.5,5.7-12.6,8.3-19
			c2.4-5.9,5.7-11.3,9.4-16.4c1.5-2.1,3.5-3.6,5.8-4.7c0.9-0.5,2.3-1,3.1-0.3c0.9,0.8,0.6,2.2,0.2,3.2c-1.3,3.2-2.8,6.4-4.1,9.6
			c-2.4,5.7-5.6,11.1-6.6,17.3c-0.8,4.6,1.9,9.7,6.7,9c1,0.1,1.9-0.1,2.7-0.5c2.2-0.5,4-1.7,5.8-3c8.2-5.9,12.2-14.8,16.7-23.3
			C300.8,255.5,301.3,254.3,300,253.7z M225.6,267.8c1.3-6.2,2.4-7.4,3.2-9c1-2.2,2.4-3.8,2.9-4.4c0.2-0.2,0.8-0.7,1-1
			c0.2-0.3,0.2-0.3,0.8-0.7c0.4-0.4,0.9-0.7,1.3-1c0.6-0.6,1.7-1.4,2.5-1.9c0.8-0.7,1.2-0.9,2.3-1.1c0.5-0.1,1,0,1.2,0.6
			c0.6,1.5,0,3.9-0.5,5.3c-0.7,2-1.9,3.8-3.1,5.4c-2.4,3.1-5.6,6.6-9.2,8.4c-0.1,0-0.1,0-0.1,0c-0.2,0.1-0.5,0.2-0.7,0.3
			C226.4,269,225.4,268.9,225.6,267.8z"/>
		<path class="st2" d="M468.1,203.9c-1-0.1-1.2,0-2.4,0.2c-0.2,0-0.9,0.2-1.2,0.3c-0.8,0.3-1.5,0.8-2.2,1.3c-1.6,1.1-3.7-0.5-3-2.4
			c0.8-2,1.5-4.1,2.3-6.1c2.3-6.4,5.2-12.6,6.7-19.2c0.8-3.6-0.1-4.7-3.6-4.2c-1.1,0-2.2,0.1-3.2,0.6c-1.6,0.5-3.3,0.8-4.8,1.6
			c-2.3,1.2,0.3,2.9-0.1,4.4c-0.2,0.6-0.3,1.2-0.5,1.8c-3.7,11.2-8.6,22-12.8,33.1c-1.9,5-4.3,9.8-5.1,15.1
			c-1.1,6.9-4,12.8-9.2,17.6c-0.8,0.8-1.7,1-2.6,0.9c-1.2-0.1-1.1-1.3-1.3-2.1c-0.5-2.4,0.2-4.8,1.1-6.9c4.4-9.5,7.2-19.5,10.8-29.3
			c0-0.9-0.5-0.7-1.1-0.7c-0.9,0.1-1.7,0.5-2.6,0.4c-0.3,0-0.5,0-0.8,0c-2.9,0.7-6.6-0.1-7.4,4.3c-0.1,0.5-0.6,0.6-1,0.2
			c-2-1.8-3.3-1.7-5.2-2c-0.1,0-0.3,0-0.5,0c-1.1,0-1.5,0.1-2.9,0.5c-0.1,0-0.2,0-0.2,0.1c-1.6,0.7-2.5,1-3.7,1.7
			c-8.1,4.5-14.2,10.9-18.4,19.1c-2,3.9-3.6,7.8-4,12c-1.5,15.3,7,19.2,18.2,8.6c0,0,0.1-0.1,0.1-0.1c1.7-1.6,3.1-3.4,4.6-5.4
			c0.9-1.3,2.9-1,3.5,0.4c0.2,0.5,0.4,1,0.5,1.5c0.8,2.8,4.4,4.7,6.6,3.8c5.6-2.2,9.4-6.5,12.6-11.5c0.4-0.5,0.3-1.6,1.2-1.5
			c1,0,1,1,1.3,1.8c0.7,2.4,2.1,4.1,4.5,5.4c4.4,2.3,8.4,0.7,12.4-0.6c3.8-1.3,6.9-4,9.8-6.8c7.8-7.4,14-15.6,13.8-27
			C478.2,209.1,473.8,203.9,468.1,203.9z M416.5,237.4c-1.5,3.5-3.5,6.9-5.7,9.8c-1.5,2-4.5,5.8-7.3,6.4c-6.8,1.3-2.1-13.1-1.2-15.6
			c0.7-1.9,1.5-3.9,2.5-5.8c1.5-3.5,3.5-6.9,5.7-9.8c1.5-2,4.5-5.8,7.3-6.4c6.8-1.3,2.1,13.1,1.2,15.6
			C418.4,233.5,417.5,235.5,416.5,237.4z M465.2,225.2c-1.7,4.8-4.4,9.8-7.5,13.8c-1.6,2.1-4.7,6.1-7.7,6.7
			c-7.1,1.4-2.2-13.8-1.2-16.4c1.7-4.8,4.4-9.8,7.5-13.8c1.6-2.1,4.7-6.1,7.7-6.7C471.2,207.4,466.2,222.6,465.2,225.2z"/>
		<path class="st2" d="M134.4,227c9-1.3,17.8-0.8,26.1,3.4c9.2,4.8,12.9,16.5,4.9,25.1c-4.1,4.5-8.9,7.7-14.6,9.8
			c-0.6,0.2-1.1,0.5-1.1,1c0,0.5,0.7,0.5,1.2,0.8c5.2,2,9.7,4.7,12.4,10c3.4,6.5,2,15.8-3.2,20.9c-4.1,4-8.8,6.6-14.1,8.1
			c-1.9,0.7-3.9,1-5.9,1.1c-6.3,1-12.3,0.3-17.9-3.2c-0.4-0.3-0.8-0.6-1.2-1c-0.7-0.8-1.3-1.7-0.7-2.8c0.7-1.2,1.8-0.4,2.6-0.2
			c1.6,0.2,2.8,1.2,3.9,2.2c2.1,1.6,4.4,2.1,7,1.8c1.3,0.1,2.6-0.2,3.7-0.7c9.3-2.4,16.5-13.4,15.7-22.2
			c-0.8-9.1-7.1-12.9-15.5-12.2c-0.5,0-1.1,0.3-1.6,0.1c-0.8-0.3-1.9-0.1-2.1-1.3c-0.2-1.4,0.8-1.6,1.8-1.8c1.9-0.9,4-0.6,5.9-1.5
			c5.4-1.7,9.3-5.4,12.5-9.9c2.6-3.6,3.6-7.7,3.8-12c0.1-1-0.1-1.8-0.5-2.7c-3.8-8.2-10.9-9.9-19-9.6c-10.5,0.4-20.1,3.5-29,8.9
			c-8.2,5-15.1,11.3-19.1,20.1c-1.5,3.4-2.4,7.1-2.1,10.9c0.5,1.2,0.8,2.5,0.7,3.8c2.7,7.3,9.2,6.6,14.6,4.6c2.6-1,4.5-2.9,6.2-5
			c0.5-0.7,1.2-1.2,1.9-1.8c0.7-0.6,1.4-1.3,2.3-0.5c1.1,1,0.2,1.8-0.3,2.6c-3.3,5-7.7,8.8-13.2,11.1c-0.6,0.2-0.8,1-1.6,0.8
			c-1.8,0-3.6,0.4-5.3,1c-7.6,0.6-13.5-5.4-14.3-11c-0.5-0.8-0.6-1.8-0.5-2.7c-1.3-7.9,2.1-14.4,6.8-20.2
			c6.1-7.5,13.8-13.2,22.5-17.6c5.3-2.6,10.6-5.2,16.5-6.3c1.2-0.8,2.7-0.4,3.9-1.2c0.9-0.1,1.6-0.3,2.5-0.4
			C132.2,227.5,133.2,226.7,134.4,227z"/>
		<path class="st2" d="M374.3,238c-1.5-4.7-4.2-8.6-7.5-12.1c-4.9-5.3-8.9-11-10.1-18.4c-1.2-7.8,1.2-14.1,6.9-19.3
			c3-2.7,6.4-4.9,10.3-5.9c1.6-0.6,3.2-0.9,4.9-0.9c6.9-0.5,13.2,2.2,15.5,8.6c0.6,1.4,0.9,2.9,0.8,4.4c-0.1,6.1-2.6,10.8-7.9,13.9
			c-0.6,0.3-1.3,0.4-2,0.6c-0.5,0.2-1.1,0.1-1.5-0.3c-0.4-0.6,0.2-1,0.5-1.4c2.1-3,3.9-6.1,3.9-9.9c0.1-5.1-4.3-11.6-10.2-12.4
			c-5.8-0.8-11.2,3.6-12.1,9.6c-1,6.5,1.2,11.9,5.5,16.9c5.5,6.3,10.6,13,13,21.3c0.6,1.6,0.9,3.2,0.9,4.9c0.4,9-3.9,15.7-10.6,21.1
			c-5.4,4.3-10.5,8.2-17.4,9.5c-0.4,0.1-1,0.2-1.7,0.3c-0.2,0-0.5,0.1-0.7,0.1c-1.3,0.4-1.8,0.4-3.3,0.6c-0.1,0-0.3,0-0.4,0
			c-6.8,0.5-13.3-0.1-19.1-4.1c-3.5-2.4-5.7-5.7-6.9-9.6c-1.9-6.1-2-12.1,0.9-18c3.4-6.8,8-12.3,14.8-15.6c4-2,8.4-3.2,12.9-2.6
			c4.9,0.6,8.5,5.1,9,10.7c0.4,4.7-0.4,9.1-4.3,12.4c-0.2,0.2-0.5,0.2-1,0.4c0.1-2.6,0.3-5,0.4-7.4c0.1-4.4-3.2-8.9-7.4-10.3
			c-7.6-2.7-14.5,1.6-17.4,9.4c-1.2,3.2-2.5,6.4-1.7,10c0.1,0.4,0.1,0.8,0.1,1.1c0,0.6,0.1,1.5,0.4,2.2c0.1,0.3,0.3,0.9,0.3,1.2
			c1.6,8.3,10.5,16.1,19.6,15.9c5.8-0.1,11.2-1.2,15.6-5.2c5.2-4.8,8-10.8,7.8-18C375.1,240.5,374.9,239.2,374.3,238z"/>
		<path class="st2" d="M83.8,318.3c-4.8,0.5-9.4,0-13.5-2.9c-3.1-2.1-4.1-5-3.1-8.4c1-3.2,3.7-5.1,7.3-5c3,0,5.7,3.8,4.6,6.6
			c-0.5,1.4-2.5,2.5-1,4.3c1.4,1.7,3.6,1.8,5.4,1.7c8.3-0.5,14.6-4.6,19.5-11.1c5.9-7.8,9.1-16.9,12.5-25.9
			c3.3-8.8,6.2-17.8,11.9-25.5c4.8-6.6,10.8-11.9,18.7-14.5c1-0.5,2.1-0.8,3.3-0.6c2.4,1,0.8,2-0.1,2.8c-2.9,2.6-5.9,5.1-7.8,8.5
			c-1.3,2.3-2.4,4.7-3.5,7.1c-5,9.8-7.3,20.6-11.8,30.6c-4.9,10.9-11.9,19.8-22.6,25.6c-4.3,2.4-8.8,4.3-13.4,5.6
			C88.1,317.2,85.9,317.6,83.8,318.3z"/>
		<path class="st2" d="M522.7,202.4c-0.4-3-2.3-5-5-6.1c-4.8-1.9-9.7-1-14.3,0.8c-5.6,2.2-10.3,5.7-14.3,10.2
			c-5.5,6.1-9.5,12.9-10.4,21.2c-0.4,4,2.1,9.7,5.1,11.3c5.5,2.9,11.2,2.5,16.7,0.2c8.9-3.8,14.9-10.8,19.1-19.2
			c2.4-4.9,4.3-10,3.6-15.6C523.4,204.2,523.2,203.3,522.7,202.4z M511.8,216c-1.8,5-4.6,10.2-7.8,14.4c-1.7,2.2-4.9,6.4-8,7
			c-0.5,0.1-0.9,0.1-1.3,0.1c-0.9,0.1-1.6,0-2.2-0.3c-4.7-1.4-0.4-14.6,0.5-17.1c1.8-5,4.6-10.2,7.8-14.4c1.7-2.2,4.9-6.4,8-7
			c0.1,0,0.1,0,0.2,0c0,0,0.1,0,0.2,0c0,0,0,0,0.1,0c0,0,0,0,0.1,0c0.2,0,0.5-0.1,0.7-0.1c0,0,0.1,0,0.1,0c0.2,0,0.4,0,0.5,0
			c0,0,0,0,0,0c0.2,0,0.4,0.1,0.6,0.1l0,0c0.2,0,0.5,0.1,0.6,0.2C517.3,199.7,512.7,213.5,511.8,216z"/>
		<path class="st2" d="M539,233.5c-6.3-0.1-8.4-4.8-7.3-11.3c0.7-4,2.2-7.8,4.7-11.1c2.5-3.4,4.8-7,7.2-10.5c0.1-0.1,0-0.3,0.1-1
			c-2.5,0.6-5,0.8-7.5,0.9c-1.2,0-1.6,1-1.9,1.9c-2.8,6.9-5.1,14-8.8,20.5c-3.1,5.5-6.5,10.8-11.5,14.9c-1,0.9-2,0.8-2.7,0
			c-0.6-0.7-0.3-1.6,0.7-2.5c8.5-7.3,13.4-16.9,17.3-27.1c1.9-5.1,3.6-10.2,5.2-15.4c0.6-2.1,1.8-1.9,3.4-1.6
			c1.8,0.3,3.5,1.4,5.4,0.8c1,0.1,1.8,0,2.7-0.5c2.1-0.5,3.8-1.8,5.7-2.6c1-0.4,2.1-1,3,0c0.8,0.8,0.4,1.7-0.1,2.7
			c-2.7,5.2-5.6,10.4-7.6,15.9c-1.5,4.3-4.1,8.3-4.2,13.1c0,1.3,0.4,2.5,0.9,3.6c0.7,1.5,1.7,2,3.3,0.7c4-3.2,6.3-7.7,8.6-12.1
			c1.3-2.5,2.4-5.1,3.6-7.6c0.5-1,1.4-1.5,2.1-1.2c0.9,0.4,0.8,1.4,0.3,2.3c-2.4,5.1-5.2,9.9-8,14.7c-2.3,3.9-4.9,7.3-8.4,10
			c-0.7,0.5-1.3,1.2-2.3,1.2C541.6,233.2,540.2,232.7,539,233.5z"/>
		<path class="st3" d="M83.8,318.3c2-1.1,4.1-1.5,6.4-1.2C88.1,317.5,86,317.9,83.8,318.3z"/>
		<path class="st4" d="M93.8,286.6c1.7-1,3.4-1.3,5.3-1C97.4,285.9,95.6,286.2,93.8,286.6z"/>
		<path class="st4" d="M437,210.7c-1.2-1.1-2.7,0.6-4-0.3c1.2-0.2,2.4-0.6,3.6-0.7C437.6,209.5,437.6,210,437,210.7z"/>
		<path class="st4" d="M395.3,194.3c-0.3-1.5-0.5-2.9-0.8-4.4C395.3,191.3,395.6,192.8,395.3,194.3z"/>
		<path class="st5" d="M137.8,303.2c-1.1,0.9-2.4,1.2-3.7,0.7C135.3,303.7,136.6,303.4,137.8,303.2z"/>
		<path class="st6" d="M539,233.5c1-1.1,2.5-0.8,3.7-1.1C541.7,233.5,540.3,233.2,539,233.5z"/>
		<path class="st4" d="M374.4,238c1,1.1,1.2,2.4,0.7,3.8C374.9,240.5,374.6,239.2,374.4,238z"/>
		<path class="st7" d="M464.7,173.8c-1.1,0.2-2.2,0.4-3.2,0.6C462.4,173.5,463.5,173.2,464.7,173.8z"/>
		<path class="st8" d="M149.5,236.8c-1.1,0.2-2.2,0.4-3.3,0.6C147.1,236.5,148.2,236.3,149.5,236.8z"/>
		<path class="st4" d="M191.3,259.2c-0.2-1-0.5-2.1-0.8-3.1C191.8,256.9,191.7,258,191.3,259.2z"/>
		<path class="st4" d="M223,292.8c0.9-1,2.1-1.1,3.3-0.6C225.2,292.4,224.1,292.6,223,292.8z"/>
		<path class="st4" d="M290.1,244.8c-0.2-1.1-0.4-2.2-0.6-3.3C290.4,242.4,290.6,243.6,290.1,244.8z"/>
		<path class="st5" d="M157.8,239.7c0.8,0.8,1,1.7,0.5,2.7C158.1,241.4,158,240.6,157.8,239.7z"/>
		<path class="st9" d="M545.9,191.5c-0.8,0.8-1.7,1-2.7,0.5C544.1,191.9,545,191.7,545.9,191.5z"/>
		<path class="st10" d="M494.7,237.5c-0.2,0-0.5,0-0.7,0c1,0.2,2,0,3.1-0.5c-0.4,0.2-0.7,0.3-1.1,0.4
			C495.5,237.5,495.1,237.5,494.7,237.5z"/>
	</g>
</g>
<g id="sombrero">
	<path class="st11" d="M248.4,197.6c0,0,12.2-38.7,1.9-55.2c0,0-36-4.6-39-27.3c-3-22.7,21.1-43.9,54.9-34.1c0,0,8.9-27.6,30.9-31.7
		s51.7,8.1,53.3,30.6c0,0,35.7-8.1,47.9,9.5s17.3,48.5-33.3,52c0,0-1.4,23.6,4.6,33.8L248.4,197.6z"/>
	<path class="st12" d="M358.3,85.6c-1.4,0.3-1.2,2.3,0.2,2.4c7,0.3,17.4,1.4,23.2,5.9c7,5.6,9.5,9.7,8.1,16.3
		c-1,4.6,0.1,0.9-4.5,12.1c-0.7,1.6,1,3.1,2.4,2.1c5-3.7,9.5-7.3,10.6-13.8c1.3-8.3,0.3-15.3-9.8-21.5
		C382.4,85.3,367.3,83.5,358.3,85.6z"/>
	<path class="st12" d="M300.7,59.2c-0.5,0.4-0.2,1.2,0.4,1.2c5.6,0.2,19.3,0.9,26.1,5.7c5.4,3.8,10.1,11.5,2.6,28.9
		c-1,2.4,1.7,4.7,3.9,3.2c1.5-1,3.6-2.9,5.7-6.8c7.2-12.8,0.2-23.9-5.5-28.8C329.2,58.6,311.1,51.8,300.7,59.2z"/>
	<path class="st12" d="M233.2,128.2c1.1,0.2,2-1.1,1.3-2c-3.2-4.4-8.2-13.4-4.4-21.7c4.6-10,19.8-14.3,29.7-15.6
		c1-0.1,1.1-1.6,0.1-1.8c-6.4-1.5-16-3.1-22-0.6c-9.1,3.7-14.1,8-17.4,15.1C219.3,104.5,216.5,124.7,233.2,128.2z"/>
</g>
<g id="banner">
	<polygon class="st11" points="91.4,329.9 550.5,249.3 526.9,289.6 550.5,327.4 91.4,408.7 112.5,364.7 	"/>
	<g>
		<g>
			<path class="st13" d="M134.9,350.7v-2.2l6.7-1.2v2.9l-0.6,0.1L134.9,350.7z M142.5,375.5l6.1-0.4v2.2l-13.8,2.6v-2.2l6.1-1.9
				L142.5,375.5z M138.7,362.4c0-4.9,0-9.8-0.1-14.7l6-1.1c-0.1,4.8-0.1,9.8-0.1,14.7v1.7c0,5.3,0,10.2,0.1,15.1l-6.1,1.1
				c0.1-4.8,0.1-9.8,0.1-14.7C138.7,364.5,138.7,362.4,138.7,362.4z M153.3,345l2.6,2l-14.4,2.7v-2.5l15.9-3l0.3,8.2l-3.1,0.6
				L153.3,345z M151.8,361.9l-10.2,1.9v-2.5l10.2-1.9L151.8,361.9L151.8,361.9z M150.4,360.3l0.7-4.9l2.3-0.4v11.2l-2.3,0.4
				l-0.7-4.9V360.3z"/>
			<path class="st13" d="M188.7,354.2c0,10.7-6.7,17.8-13.9,19.1c-7.1,1.3-13.9-3-13.9-14c0-10.7,6.8-17.8,13.9-19.1
				C181.9,338.9,188.7,343.3,188.7,354.2z M174.8,370.7c5.4-1,7.6-7.9,7.6-15.4c0-7.5-2.2-13.6-7.6-12.6c-5.4,1-7.6,7.9-7.6,15.4
				C167.2,365.6,169.5,371.7,174.8,370.7z"/>
			<path class="st13" d="M220.3,348.3c0,10.7-6.7,17.8-13.9,19.1c-7.1,1.3-13.9-3-13.9-13.9c0-10.7,6.8-17.8,13.9-19.1
				C213.5,333,220.3,337.4,220.3,348.3z M206.4,364.9c5.4-1,7.6-7.9,7.6-15.4c0-7.5-2.2-13.6-7.6-12.6c-5.4,1-7.6,7.9-7.6,15.4
				C198.8,359.8,201,365.8,206.4,364.9z"/>
			<path class="st13" d="M224,334.1v-2.2l6.7-1.2v2.9l-0.6,0.1L224,334.1z M230.7,359.2v2.9l-6.7,1.2v-2.2l6.1-1.8L230.7,359.2z
				 M227.8,345.9c0-4.9,0-9.8-0.1-14.7l6.1-1.1c-0.1,4.8-0.1,9.8-0.1,14.7v1.7c0,5.3,0,10.2,0.1,15.1l-6.1,1.1
				c0.1-4.8,0.1-9.8,0.1-15.1V345.9z M230.7,359.7l5.5-1c6-1.1,9.5-6.6,9.5-15c0-8.7-3.5-12.6-9.3-11.6l-5.8,1.1v-2.5l6.5-1.2
				c9-1.7,14.8,3,14.8,13c0,10.1-6.4,16.9-15.6,18.7l-5.6,1L230.7,359.7L230.7,359.7z"/>
			<path class="st13" d="M264.4,353.6l4.5-1.5l0.8-0.2l4.6-0.1v2.2l-9.9,1.8V353.6L264.4,353.6z M277.4,321.8l3.6-0.7l10.1,29.7
				l-5.9,1.1l-8.3-25.4l1.4-1.5l-8.8,29.8l-2.4,0.4L277.4,321.8z M272.4,342.2l12-2.2l0.9,2.3l-13.6,2.5L272.4,342.2z M280.5,350.7
				l5.3-1.7l2-0.4l5.6-0.3v2.2l-12.9,2.4L280.5,350.7L280.5,350.7z"/>
			<path class="st13" d="M295.6,347.8l4.7-1.6l1.1-0.2l5.4-0.3v2.2l-11.2,2.1L295.6,347.8L295.6,347.8L295.6,347.8z M298.1,319.7
				l2.7,0.8l-5.1,0.4v-2.2l8.4-1.6l17.2,22v6.5l-2.6,0.5L298.1,319.7z M299.4,317.9l2.6,1.8v29.2l-2.6,0.5V317.9z M313.9,315.2
				l11.2-2.1v2.2l-4.5,1.5l-1.1,0.2l-5.7,0.3V315.2z M318.8,314.3l2.6-0.5v31.7l-2.6-2.2V314.3z"/>
			<path class="st13" d="M328.5,314.7v-2.2l6.7-1.2v2.9l-0.6,0.1L328.5,314.7z M335.2,339.8v2.9l-6.7,1.2v-2.2l6.1-1.9L335.2,339.8z
				 M332.4,326.5c0-4.9,0-9.8-0.1-14.7l6-1.1c-0.1,4.8-0.1,9.8-0.1,14.7v1.7c0,5.3,0,10.2,0.1,15.1l-6,1.1c0.1-4.8,0.1-9.8,0.1-15.1
				V326.5z M335.2,340.2l5.5-1c6-1.1,9.5-6.6,9.5-15c0-8.7-3.5-12.6-9.3-11.5l-5.8,1.1v-2.5l6.5-1.2c9-1.7,14.8,3,14.8,13
				c0,10.1-6.4,16.9-15.6,18.7l-5.6,1L335.2,340.2L335.2,340.2z"/>
			<path class="st13" d="M370.4,306.9v-2.2l6.7-1.2v2.9l-0.6,0.1L370.4,306.9z M377.1,332v2.9l-6.7,1.2v-2.2l6.1-1.9L377.1,332z
				 M374.2,318.7c0-4.9,0-9.8-0.1-14.7l6-1.1c-0.1,4.8-0.1,9.8-0.1,14.7v1.7c0,5.3,0,10.2,0.1,15.1l-6,1.1c0.1-4.8,0.1-9.8,0.1-15.1
				V318.7z M377.1,332.5l5.5-1c6-1.1,9.5-6.6,9.5-15c0-8.7-3.5-12.6-9.3-11.5l-5.8,1.1v-2.5l6.5-1.2c9-1.7,14.8,3,14.8,13
				c0,10.1-6.4,16.9-15.6,18.7l-5.6,1L377.1,332.5L377.1,332.5z"/>
			<path class="st13" d="M402.1,301.1v-2.2l6.7-1.2v2.9l-0.6,0.1L402.1,301.1z M409.4,326l6.1-0.4v2.2l-13.4,2.5v-2.2l6.1-1.9
				L409.4,326z M405.9,312.8c0-4.9,0-9.8-0.1-14.7l6-1.1c-0.1,4.9-0.1,9.7-0.1,15v1.4c0,5.2,0,10.1,0.1,15l-6,1.1
				c0.1-4.8,0.1-9.8,0.1-14.7V312.8z M408.8,312.1l5.4-1c4.6-0.9,6.4-4,6.4-7.4c0-3.9-2-5.5-6.1-4.8l-5.8,1.1v-2.5l6.7-1.2
				c6.9-1.3,10.9,1,10.9,6.1c0,3.8-2.8,8-9.6,9.8l0.1-0.5c5.1-0.7,7,1,8,5.5l1.7,7.3l-2.5-1.2l5.6-0.4v2.2c-1.5,0.7-2.4,1-4.1,1.3
				c-3.3,0.6-5,0-5.5-2.9l-1.3-6.4c-0.7-3.4-2-4.2-5.2-3.6l-4.7,0.9L408.8,312.1L408.8,312.1L408.8,312.1z"/>
			<path class="st13" d="M432,295.5v-2.2l13.4-2.5v2.2l-6.2,1.9l-1.1,0.2L432,295.5z M439.2,320.5l6.2-0.4v2.2l-13.4,2.5v-2.2
				l6.1-1.9L439.2,320.5z M435.8,307.3c0-4.9,0-9.8-0.1-14.7l6-1.1c-0.1,4.8-0.1,9.8-0.1,14.7v2c0,4.9,0,9.8,0.1,14.7l-6,1.1
				c0.1-4.8,0.1-9.8,0.1-14.7V307.3z"/>
			<path class="st13" d="M448.8,319.4l4.7-1.6l1.1-0.2l5.4-0.3v2.2l-11.2,2.1L448.8,319.4L448.8,319.4L448.8,319.4z M451.4,291.3
				l2.7,0.8l-5.1,0.4v-2.2l8.4-1.6l17.2,22v6.5l-2.6,0.5L451.4,291.3z M452.6,289.5l2.6,1.8v29.2l-2.6,0.5V289.5z M467.1,286.8
				l11.2-2.1v2.2l-4.5,1.5l-1.1,0.2l-5.7,0.3V286.8z M472,285.8l2.6-0.5V317l-2.6-2.2V285.8z"/>
			<path class="st13" d="M481.8,286.3V284l13.3-2.5v2.2l-6,1.8l-1.1,0.2L481.8,286.3z M489,311.2l5.8-0.4v2.2l-13,2.4v-2.2l6.1-1.9
				L489,311.2z M485.6,298c0-4.9,0-9.8-0.1-14.7l5.8-1.1c-0.1,4.8-0.1,9.8-0.1,14.7v2.8c0,4.1,0,9,0.1,13.9l-5.8,1.1
				c0.1-4.8,0.1-9.8,0.1-14.7V298z M488.4,303.3l15.7-23.4l3-0.5l-18.7,27.2V303.3z M497.6,291.4l10.8,19.2l-6.2,1.2l-8.1-15.2
				L497.6,291.4z M498,310.3l5.7-1.8l0.8-0.2l5.6-0.3v2.2l-12.1,2.2L498,310.3L498,310.3z M498.9,283.1v-2.2l10.3-1.9v2.2l-5,1.6
				l-1.1,0.4L498.9,283.1z"/>
		</g>
	</g>
</g>
<g id="rulos">
	<path class="st2" d="M533.1,102.4c-3.1-0.2-5.7,0.9-7.6,2.6c-0.3,0.3-3.2,3.1-3.1,7.2c0.1,3.3,2.1,6.6,3.2,6.6c0,0,0.4,0,0.5-0.2
		c0.3-0.5-0.4-1.4-0.6-1.8c-1.2-1.9-1.2-5.6,0.2-8c1.2-2.1,3.3-2.8,3.9-3c0.4-0.1,3.1-1,5.7,0.5c1.7,0.9,2.5,2.3,2.8,2.9
		c1.5,2.8,1,5.6,0.8,6.8c-0.1,0.6-0.7,3.2-3.2,6.2c-3.4,4-7.5,5.6-11,6.9c-2.5,0.9-6.3,2.1-11.3,2.4c0.7-2.4,0.7-4.3,0.6-5.6
		s-0.3-5.2-3.1-8.9c-0.7-1-3.7-5-9-6.1c0,0-4.4-0.9-7.7,1.2c-0.2,0.2-0.8,0.5-0.8,1c0,0.2,0.1,0.3,0.3,0.4c0.2,0.1,0.5,0,0.8-0.1
		c0.7-0.3,1-0.4,1.2-0.6c0.7-0.5,3.9-1.2,6.9-0.2c3.6,1.2,5.2,4.2,6.2,6.1c0.5,0.8,2.1,4,1.9,8.4c-0.1,2-0.6,3.7-1,4.8
		c-1,0.1-2.7,0.2-4.7,0.2c-5.9,0.1-11.7-0.7-17.5-1.9c-4.8-1-9.5-1.6-14.4-1c-9,1.2-18.5,5.2-19,15.5c-0.5,9.2,7.9,13.3,15.9,10.7
		c2.6-0.8,5.6-3.3,7.9-6.3c0.8,0.5,10.8,6.4,21.7,1.4c10.4-4.7,12.9-15.1,13.1-16.3c11.4-1.3,24.6-5.2,28.7-16
		C544,111.6,541.5,102.9,533.1,102.4z M477.6,145.5c-3-1.4-4.6-3.9-4.2-5.7c0.2-0.9,1.1-2.3,2.4-2.5c0.7-0.1,1.3,0.3,1.5,0.4
		c1.8,1.1,1.7,3.8,1.7,4.1C479,143.7,478,145,477.6,145.5z M490.6,148.9c-3.6,0.2-7.6-0.6-11-2.3c1.7-3.3,2.1-6.9,0-9.6
		c-2.3-2.9-6.1-1.9-7.8,1.1c-1.6,3-0.6,5.9,1.7,8.1c0.8,0.7,1.6,1.4,2.5,2c-0.2,0.2-0.4,0.5-0.6,0.8c-5.4,5.9-18.9,8.5-18.7-3.4
		c0.2-11.3,13.5-14.3,22.6-13.7c8.7,0.5,16.8,3.4,25.6,3.1c1.2,0,2.5-0.1,3.8-0.2C505.4,142.1,498.9,148.4,490.6,148.9z"/>
	<path class="st2" d="M66.5,188.3c2.6-1.6,5.4-1.9,7.9-1.3c0.4,0.1,4.3,1.2,6.1,4.9c1.5,3,1.3,6.9,0.2,7.3c0,0-0.3,0.2-0.6,0
		c-0.5-0.3-0.3-1.5-0.3-1.8c0.2-2.2-1.5-5.5-3.9-6.9c-2.1-1.2-4.3-0.9-4.8-0.8c-0.4,0.1-3.2,0.6-4.8,3.2c-1,1.6-1.1,3.2-1.1,3.9
		c0,3.2,1.8,5.4,2.5,6.3c0.4,0.4,2.1,2.5,5.8,4c4.8,2,9.3,1.4,13,0.9c2.7-0.4,6.6-1.2,11.1-3.2c-1.7-1.8-2.7-3.5-3.2-4.7
		c-0.6-1.2-2.1-4.7-1.5-9.3c0.2-1.2,0.9-6.2,5.1-9.6c0,0,3.5-2.9,7.4-2.6c0.3,0,1,0.1,1.2,0.5c0.1,0.1,0.1,0.3,0,0.5
		c-0.1,0.2-0.4,0.2-0.7,0.2c-0.7,0.1-1.1,0.1-1.3,0.1c-0.8-0.1-4,0.8-6.1,3.1c-2.6,2.7-2.6,6.2-2.6,8.3c0,0.9,0,4.5,2.3,8.3
		c1.1,1.8,2.2,3,3.1,3.8c1-0.4,2.5-1.1,4.3-2c5.3-2.7,10-6.1,14.6-9.9c3.8-3.1,7.6-5.9,12.2-7.6c8.5-3.2,18.7-4.1,24.1,4.7
		c4.8,7.9-0.7,15.4-8.9,16.9c-2.6,0.5-6.5-0.2-9.9-1.9c-0.5,0.8-6.5,10.7-18.5,11.5c-11.4,0.8-18.5-7.3-19.2-8.2
		c-10.7,4.3-24.1,7-32.9-0.5C61.2,201.6,59.4,192.6,66.5,188.3z M135.8,200.1c1.9-2.7,2.2-5.6,1-7c-0.6-0.7-2.1-1.5-3.3-1
		c-0.7,0.3-1,0.8-1.1,1c-1.1,1.8,0.3,4.1,0.5,4.5C133.7,199.2,135.2,199.9,135.8,200.1z M125.9,209.2c3.3-1.5,6.4-4.1,8.7-7.2
		c-3-2.1-5.1-5-4.5-8.5c0.6-3.7,4.5-4.6,7.4-2.7c2.9,1.9,3.3,4.9,2.3,7.9c-0.3,1-0.8,2-1.3,3c0.3,0.1,0.6,0.3,0.9,0.4
		c7.5,2.7,20.7-1.5,14.9-11.8c-5.6-9.9-18.6-6.2-26.4-1.5c-7.4,4.5-13.2,10.9-21.1,14.9c-1.1,0.5-2.2,1.1-3.4,1.6
		C109.6,210.2,118.4,212.7,125.9,209.2z"/>
</g>
</svg>
